<svg width="38" height="198" viewBox="0 0 38 198" fill="none" xmlns="http://www.w3.org/2000/svg">
<g id="Button previous">
<g id="Rectangle 30">
<path d="M38 198L10 198C4.47715 198 -3.91405e-07 193.523 -8.74228e-07 188L-1.64355e-05 10C-1.69183e-05 4.47716 4.47714 2.93066e-06 9.99998 2.44784e-06L38 0L38 198Z" fill="#E1ECC8"/>
<path d="M37.5 197.5L10 197.5C4.7533 197.5 0.5 193.247 0.499999 188L0.499984 10C0.499983 4.7533 4.75328 0.500003 9.99998 0.500002L37.5 0.5L37.5 197.5Z" stroke="black" stroke-opacity="0.55"/>
</g>
<path id="Polygon 1" d="M4 99L27.25 86.0096L27.25 111.99L4 99Z" fill="#4D4D4D"/>
</g>
</svg>
